<?xml version="1.0" encoding="UTF-8"?>
<svg height="16px" viewBox="0 0 16 16" width="16px" xmlns="http://www.w3.org/2000/svg">
    <g fill="#241f31">
        <path d="m 6 1 h 2 v 4 h -2 z m 0 0"/>
        <path d="m 7 10 l -1 -1 v -2 h 2 v 2 z m 0 0"/>
        <path d="m 6 0 h 2 c 0.550781 0 1 0.449219 1 1 s -0.449219 1 -1 1 h -2 c -0.550781 0 -1 -0.449219 -1 -1 s 0.449219 -1 1 -1 z m 0 0" fill-rule="evenodd"/>
        <path d="m 7 3 c -1.65625 0 -3 1.34375 -3 3 h 6 c 0 -1.65625 -1.34375 -3 -3 -3 z m 0 0"/>
        <path d="m 3 2 c -1.644531 0 -3 1.355469 -3 3 v 6 c 0 1.644531 1.355469 3 3 3 h 7 l 4 -4 v -5 c 0 -1.644531 -1.355469 -3 -3 -3 v 2 c 0.570312 0 1 0.429688 1 1 v 4 l -3 3 h -6 c -0.570312 0 -1 -0.429688 -1 -1 v -6 c 0 -0.570312 0.429688 -1 1 -1 z m 0 0"/>
        <path d="m 15 6 v 5 l -4 4 h -7 v 1 h 8 l 4 -4 v -6 z m 0 0"/>
    </g>
</svg>
