<?xml version="1.0" encoding="utf-8"?>
<svg viewBox="0 0 500 500" width="500" height="500" xmlns="http://www.w3.org/2000/svg">
  <path style="stroke: rgb(0, 0, 0); stroke-width: 0px; fill: rgb(255, 219, 40);" d="M 444.25 58.363 L 458.786 75.594 C 468.368 85.868 471.254 89.089 472.125 102.787 L 475.269 430.586 C 473.317 459.562 459.278 470.433 429.571 472.258 C 432.644 473.794 105.012 474.548 103.569 473.827 C 87.549 472.106 88.709 472.207 76.654 462.543 L 55.75 442.509">
    <title>Stack</title>
  </path>
  <rect x="50" y="50" width="400" height="400" style="stroke: rgb(0, 0, 0); fill: rgb(255, 238, 146); stroke-width: 0px;" rx="23.519" ry="23.519">
    <title>Top note</title>
  </rect>
  <path d="M 333.101 351.394 L 448.258 347.91 C 449.052 370.246 450 426.484 450 426.481 C 450 439.47 439.47 450 426.481 450 C 426.481 450 320.907 449.052 303.485 449.129 L 309.582 374.913 C 309.582 361.924 320.112 351.394 333.101 351.394 Z" style="stroke: rgb(0, 0, 0); stroke-width: 0px; fill: rgb(255, 230, 106);">
    <title>Flip</title>
  </path>
  <path d="M 338.067 345.543 L 447.634 345.543 C 468.005 345.543 301.181 468.649 301.181 448.279 L 301.181 382.429 C 301.181 362.057 317.695 345.543 338.067 345.543 Z" style="stroke: rgb(0, 0, 0); stroke-width: 0px; fill: rgb(204, 190, 113); fill-rule: nonzero;"/>
</svg>